<svg width="61" height="34" viewBox="0 0 61 34" fill="none" xmlns="http://www.w3.org/2000/svg">
<path d="M1.1689 33.0339H26.1504C26.788 33.0339 27.6756 32.689 28.1237 32.2753L35.3536 25.5772C35.8017 25.1634 36.1723 24.3358 36.1723 23.7496V0.595091C36.1723 0.00889961 35.8017 -0.137649 35.3536 0.284754L0.832827 32.2839C0.384729 32.6977 0.531222 33.0425 1.1689 33.0425V33.0339Z" fill="#FF5337"/>
<path d="M49.2443 33.0343H59.9728C60.6105 33.0343 60.7656 32.6895 60.3175 32.2671L39.9549 13.3797C39.4982 12.9573 39.1362 13.1039 39.1362 13.6987V23.6467C39.1362 24.2415 39.5068 25.069 39.9549 25.4914L47.2537 32.2671C47.7104 32.6895 48.598 33.0343 49.2443 33.0343Z" fill="white"/>
</svg>
