<?xml version="1.0" encoding="UTF-8"?><svg id="Layer_1" xmlns="http://www.w3.org/2000/svg" viewBox="0 0 1255 106"><defs><style>.cls-1{fill:#ffd687;}</style></defs><path class="cls-1" d="M1027.54,57.43c0,2.97,1.04,5.51,3.11,7.61,2.1,2.1,4.65,3.15,7.65,3.15s5.46-1.05,7.56-3.15c2.1-2.1,3.15-4.64,3.15-7.61v-23.63c0-1.5.54-2.79,1.62-3.87s2.37-1.62,3.87-1.62h.09c1.53,0,2.81.54,3.83,1.62,1.08,1.08,1.62,2.37,1.62,3.87v43.08c0,5.94-2.24,11.07-6.71,15.4-4.35,4.26-9.36,6.39-15.04,6.39-4.5,0-8.6-1.11-12.29-3.33-3.6-2.16-6.33-5.06-8.19-8.69-.42-.81-.63-1.62-.63-2.43,0-.69.15-1.38.45-2.07.6-1.56,1.65-2.6,3.15-3.11l.18-.09c.66-.21,1.31-.32,1.94-.32s1.31.12,1.94.36c1.23.51,2.16,1.37,2.79,2.57.96,1.8,2.4,3.26,4.32,4.37,1.95,1.14,4.07,1.71,6.35,1.71,2.85,0,5.34-1.05,7.47-3.15,2.16-2.16,3.24-4.7,3.24-7.61v-.36c-2.37,1.77-5.94,2.66-10.71,2.66-6,0-11.13-2.13-15.4-6.39-4.26-4.23-6.39-9.35-6.39-15.35v-23.63c0-1.5.54-2.79,1.62-3.87,1.08-1.08,2.36-1.62,3.83-1.62h.13c1.47,0,2.75.54,3.83,1.62,1.08,1.08,1.62,2.37,1.62,3.87v23.63Z"/><path class="cls-1" d="M1082.33,69l22.78.05c1.5,0,2.78.53,3.83,1.58,1.08,1.08,1.62,2.37,1.62,3.87v.09c0,1.5-.54,2.79-1.62,3.87-1.05,1.05-2.33,1.58-3.83,1.58h-29.4c-3.54,0-6.02-1.67-7.43-5-.54-1.23-.81-2.42-.81-3.56,0-2.01.86-3.87,2.57-5.58,2.94-3.06,7.41-7.74,13.42-14.05,5.25-5.52,9.27-9.74,12.06-12.65h-20.8c-1.53,0-2.82-.54-3.87-1.62-1.05-1.08-1.58-2.36-1.58-3.83v-.14c0-1.47.52-2.75,1.58-3.83,1.05-1.08,2.34-1.62,3.87-1.62h27.19c3.63,0,6.17,1.67,7.61,5,.54,1.23.81,2.42.81,3.56,0,2.04-.86,3.9-2.57,5.58-9.72,10.2-18.2,19.1-25.44,26.7Z"/><path class="cls-1" d="M1128.79,74.72c0,1.53-.54,2.81-1.62,3.83-1.08,1.08-2.36,1.62-3.83,1.62h-.13c-1.47,0-2.75-.54-3.83-1.62-1.08-1.02-1.62-2.3-1.62-3.83v-24.76c0-5.94,2.12-11.04,6.35-15.31,4.23-4.23,9.33-6.35,15.31-6.35,7.14,0,12.53,2.37,16.16,7.11,3.6-4.74,8.97-7.11,16.12-7.11,5.97,0,11.07,2.12,15.31,6.35,4.23,4.26,6.35,9.36,6.35,15.31v24.76c0,1.5-.53,2.78-1.58,3.83-1.08,1.08-2.37,1.62-3.87,1.62h-.09c-1.53,0-2.81-.54-3.83-1.62-1.08-1.02-1.62-2.3-1.62-3.83v-24.76c0-2.94-1.04-5.45-3.11-7.52-2.07-2.07-4.59-3.11-7.56-3.11s-5.45,1.04-7.52,3.11c-2.07,2.07-3.11,4.58-3.11,7.52v24.76c0,1.53-.54,2.81-1.62,3.83-1.02,1.08-2.3,1.62-3.83,1.62h-.09c-1.5,0-2.79-.54-3.87-1.62-1.08-1.02-1.62-2.3-1.62-3.83v-24.76c0-2.94-1.04-5.45-3.11-7.52-2.07-2.07-4.58-3.11-7.52-3.11s-5.45,1.04-7.52,3.11c-2.07,2.07-3.11,4.58-3.11,7.52v24.76Z"/><path class="cls-1" d="M1246.6,35.91c5.07,5.07,7.61,11.18,7.61,18.32v20.48c0,1.53-.54,2.81-1.62,3.83-1.08,1.08-2.36,1.62-3.83,1.62h-.14c-1.47,0-2.75-.54-3.83-1.62-1.08-1.02-1.62-2.3-1.62-3.83-3.42,3.63-8.39,5.45-14.9,5.45-7.14,0-13.25-2.54-18.32-7.61-5.07-5.07-7.61-11.18-7.61-18.32s2.54-13.25,7.61-18.32c5.07-5.07,11.18-7.61,18.32-7.61s13.25,2.54,18.32,7.61ZM1217.7,43.7c-2.88,2.91-4.32,6.42-4.32,10.53s1.44,7.67,4.32,10.58c2.91,2.88,6.44,4.32,10.58,4.32s7.65-1.44,10.53-4.32c2.91-2.91,4.37-6.44,4.37-10.58s-1.46-7.62-4.37-10.53c-2.91-2.91-6.42-4.37-10.53-4.37s-7.67,1.46-10.58,4.37Z"/><rect class="cls-1" x="934.19" y=".71" width="5.54" height="15.63" rx="2.14" ry="2.14"/><rect class="cls-1" x="944.11" y=".71" width="5.54" height="15.63" rx="2.14" ry="2.14"/><path class="cls-1" d="M995.91,44.52c0-1.01-.82-1.82-1.82-1.82h-42.61c-1.01,0-1.82-.82-1.82-1.82V14.01c0-1.01-.82-1.82-1.82-1.82h-27c-1.01,0-1.82.82-1.82,1.82v7.5c0,1.01.82,1.82,1.82,1.82h16.08c1.01,0,1.82.82,1.82,1.82v78.12c0,1.11.9,2.02,2.02,2.02h3.32c1.11,0,2.02-.9,2.02-2.02v-23.5h4.29c1.01,0,1.82.82,1.82,1.82v21.87c0,1.01.82,1.82,1.82,1.82h3.71c1.01,0,1.82-.82,1.82-1.82v-21.87c0-1.01.82-1.82,1.82-1.82h11.63c1.01,0,1.82.82,1.82,1.82v21.87c0,1.01.82,1.82,1.82,1.82h3.71c1.01,0,1.82-.82,1.82-1.82v-21.87c0-1.01.82-1.82,1.82-1.82h4.54v23.5c0,1.11.9,2.02,2.02,2.02h3.32c1.11,0,2.02-.9,2.02-2.02v-25.33s0,0,0,0v-33.43ZM941.74,16.87c0-.28.23-.5.5-.5h2.64c.28,0,.5.23.5.5v2.64c0,.28-.23.5-.5.5h-2.64c-.28,0-.5-.23-.5-.5v-2.64Z"/><g id="E6SyLv.tif"><path class="cls-1" d="M550.64,101.19l2.42-90.64,9.08-.34,20.08,43.9,18.91-43.97h8.45l2.89,91.06h-16.9l-.89-43.53-11.07,27.26c-.44.56-3.57.57-4.01-.43l-11.38-27.28-.67,43.98h-16.9Z"/><path class="cls-1" d="M617.36,101.19l21.18-91.08,13.5.05,20.92,91.04h-16.9l-3.53-14.91h-15.17l-3.53,14.91h-16.46ZM640.49,70.98h8.9l-4.67-24.88-4.23,24.88Z"/><polygon class="cls-1" points="435.45 10.13 435.45 84.98 436.11 85.64 455.02 85.64 455.02 101.19 418.1 101.19 418.1 10.8 418.77 10.13 435.45 10.13"/><polygon class="cls-1" points="479.48 10.13 479.48 85.64 499.05 85.64 499.05 101.19 462.13 101.19 462.13 10.13 479.48 10.13"/><path class="cls-1" d="M542.19,101.19h-14.23v-5.33c-12.46,13.23-25.09,3.98-25.1-12.22-.01-14.41,10.06-24.76,24.21-17.1v-7.33c0-.37-1.12-2.52-1.54-2.9-3.35-3.08-12.62-.39-16.69.46l-1.37-12.6c9.86-4.35,28.68-5.52,33.48,6.52.2.51,1.25,3.87,1.25,4.08v46.42ZM527.07,89.64v-14.88c-8.28-4.76-11.11,5.88-8.54,12.08,1.69,4.07,4.82,3.54,8.54,2.8Z"/><path class="cls-1" d="M734.78,44.78l-6,10.65c-7.92-6.1-19.64-6.99-27.59-.45-12.78,10.51-11.87,34.88,8.02,35.01,5.56.04,10.27-2.62,15.33-4.34l2.65,10.61c-4.48,2.08-9.06,4.21-14.02,4.88-45.01,6.13-42.42-58.77-1.73-62.13,8.56-.71,16.07,1.5,23.34,5.77Z"/><path class="cls-1" d="M703.64,34.56c-6.86,2.04-13.2,5.83-18.01,11.11-.89-10.75,1.51-32.47,13.46-36.75,1.78-.64,7.88-2.16,7.68.96-.17,2.59-4.42,8.59-5.43,11.51-1.78,5.14-.15,8.71,2.31,13.18Z"/><polygon class="cls-1" points="720.54 58.99 720.54 66.99 727.66 66.99 727.66 73.2 720.54 73.2 720.54 80.76 713.87 80.76 713.87 73.2 706.31 73.2 706.31 66.99 713.21 66.99 713.87 66.32 713.87 58.99 720.54 58.99"/><polygon class="cls-1" points="745.01 58.99 745.01 66.32 745.67 66.99 752.57 66.99 752.57 73.2 745.01 73.2 745.01 80.76 738.34 80.76 738.34 73.2 731.22 73.2 731.22 66.99 738.34 66.99 738.34 58.99 745.01 58.99"/><path class="cls-1" d="M725.4,13.72c.9,1.32-4.14,7.04-4.95,8.53-2.33,4.33-.75,6.84.98,10.97-5.01-.75-9.69-.12-14.67.45,1.11-9.53,6.5-23.44,18.64-19.95Z"/></g><path class="cls-1" d="M19.39,36.5c-.14,0-.18-.09-.1-.2l3.25-4.15c.08-.11.27-.2.4-.2l44.74-.02c.14,0,.19.09.11.21l-2.64,4.13c-.07.12-.25.21-.38.21l-45.39.02Z"/><path class="cls-1" d="M1.04,47.72c-.14,0-.18-.09-.1-.2l3.25-4.15c.08-.11.27-.2.4-.2l56.82-.04c.14,0,.21.11.17.24l-1.34,4.07c-.04.13-.19.24-.33.24l-58.88.04Z"/><path class="cls-1" d="M30.6,58.92c-.14,0-.19-.1-.13-.22l2.29-4.11c.07-.12.23-.22.37-.22l25.58-.02c.14,0,.24.11.23.25l-.39,4.05c-.01.14-.14.25-.27.25l-27.67.02Z"/><g id="CXHf1q"><path class="cls-1" d="M157.8,34.34c-7.66,1.89-12.93,3.47-20.47,5.37-1.86.47-2,.64-3.57-1.17-1.84-2.13-3.14-3.36-5.72-4.63-7.69-3.78-15.14-2.73-22.03,1.78-8.25,5.41-12.58,13.24-12.48,23.24.1,9.76,6.87,17.84,16.49,19.18,8.25,1.15,15.23-1.81,20.77-8.01,1.16-1.29,2.1-2.79,3.34-4.47h-23.52c-2.55,0-3.14-1.56-2.27-3.66,1.54-3.72,4.51-10.17,6.22-13.32.41-.75,1.24-2,3-2h44.44c-.22,3.31-.21,6.64-.69,9.89-1.29,8.82-4.64,16.85-10.01,23.97-8.75,11.6-20.21,18.81-34.73,20.71-11.94,1.56-23.04-.77-32.76-8.1-8.98-6.78-14.17-15.9-15.51-27.07-1.6-13.34,2.28-25.21,10.33-35.74,8.68-11.34,20.1-18.53,34.18-21.08,11.44-2.07,22.4-.68,32.3,5.93,6.45,4.31,11.05,10.14,14.13,17.25.44,1.01-.06,1.62-1.43,1.96Z"/><path class="cls-1" d="M198.11,101.85c-11.16-.21-21.24-3.42-29.73-10.74-7.2-6.21-11.67-14.1-13.18-23.56-2.19-13.77,1.62-25.98,9.94-36.87,8.93-11.68,19.68-17.82,34.12-20.4,12.42-2.22,24.16-.94,34.73,6.28,9.67,6.6,15.66,15.49,17.17,27.17,2.13,16.41-2.69,29.87-14.04,41.39-8.1,8.22-17.96,13.36-29.27,15.59-3.2.63-6.5.77-9.76,1.14ZM227.22,52.52c-.13-1.59-.13-2.84-.35-4.05-2.17-12.06-13.27-18.86-24.9-16.27-11.41,2.54-18.68,9.73-21.33,21.21-2.2,9.55,2.48,19.15,11.19,23.03,6.69,2.98,13.45,2.53,19.91-.74,9.59-4.86,14.86-12.69,15.48-23.19Z"/></g></svg>